# xmcd
#
# Track frame offsets: 
#        150
#        13190
#        23067
#        33092
#        42930
#        52837
#        64845
#        79840
#        90590
#        99827
#        110097
#        119157
#        128185
#        140760
#        157970
#        168822
#        179060
#
# Disc length: 2602 seconds
#
# Revision: 4
# Processed by: cddbd v1.5.2PL0 Copyright (c) Steve Scherf et al.
# Submitted via: ExactAudioCopyFreeDBPlugin 1.0
#
DISCID=df0a2811
DTITLE=Loved Ones - Magic Box
DYEAR=1995
DGENRE=Rock
TTITLE0=The Loved One
TTITLE1=Everlovin' Man
TTITLE2=Sad Dark Eyes
TTITLE3=A Love Like Ours
TTITLE4=Love Song
TTITLE5=Blueberry Hill
TTITLE6=Shake Rattle And Roll
TTITLE7=This Is Love
TTITLE8=Magic Box
TTITLE9=More Than Love
TTITLE10=The Woman I Love
TTITLE11=The Loverly Car
TTITLE12=I Want You To Love Me
TTITLE13=I'm No Good Without You
TTITLE14=Everlovin' Man  (Live)
TTITLE15=Sad Dark Eyes (Live)
TTITLE16=The Loved One (Live)
EXTD=YEAR: 1995
EXTT0=
EXTT1=
EXTT2=
EXTT3=
EXTT4=
EXTT5=
EXTT6=
EXTT7=
EXTT8=
EXTT9=
EXTT10=
EXTT11=
EXTT12=
EXTT13=
EXTT14=
EXTT15=
EXTT16=
PLAYORDER=
